<svg xmlns="http://www.w3.org/2000/svg" width="218" height="36" fill="none"><path fill="#fff" d="M43.022 9.3h3.91v2.19A6.086 6.086 0 0 1 49.2 9.61a7.105 7.105 0 0 1 3.153-.675 7.396 7.396 0 0 1 3.74.875 5.916 5.916 0 0 1 2.342 2.409A6.824 6.824 0 0 1 61 9.81a7.501 7.501 0 0 1 3.668-.875 7.423 7.423 0 0 1 5.713 2.063 7.916 7.916 0 0 1 1.918 5.607v10.957H68.28V16.861a4.788 4.788 0 0 0-1.09-3.306 4.049 4.049 0 0 0-3.188-1.226 4.267 4.267 0 0 0-3.135 1.243 4.962 4.962 0 0 0-1.253 3.687v10.3h-3.982v-10.88a4.484 4.484 0 0 0-1.09-3.174 4.01 4.01 0 0 0-3.076-1.176 4.358 4.358 0 0 0-3.228 1.281 5.17 5.17 0 0 0-1.272 3.799v10.153h-3.945V9.3ZM84.095 27.928a9.524 9.524 0 0 1-6.768-2.758 9.624 9.624 0 0 1-2.605-4.929 9.65 9.65 0 0 1 .56-5.551 9.24 9.24 0 0 1 2.046-3.018 9.745 9.745 0 0 1 3.041-2.005 9.525 9.525 0 0 1 3.726-.732 9.528 9.528 0 0 1 3.725.732 9.754 9.754 0 0 1 3.041 2.005 9.254 9.254 0 0 1 2.047 3.013 9.51 9.51 0 0 1 .738 3.742 9.433 9.433 0 0 1-2.785 6.74 9.505 9.505 0 0 1-6.767 2.76Zm0-15.34a5.445 5.445 0 0 0-4.04 1.716 5.932 5.932 0 0 0-1.178 1.861 6.265 6.265 0 0 0 0 4.529c.273.69.672 1.32 1.178 1.86a5.478 5.478 0 0 0 4.04 1.717c.76.005 1.514-.15 2.211-.456a5.68 5.68 0 0 0 1.808-1.26c.517-.539.93-1.17 1.216-1.861a6.028 6.028 0 0 0 0-4.529 6.022 6.022 0 0 0-1.216-1.86 5.755 5.755 0 0 0-1.808-1.26 5.441 5.441 0 0 0-2.211-.456ZM95.994 9.3h3.909v2.373a6.807 6.807 0 0 1 2.397-2.006 7.13 7.13 0 0 1 3.286-.731 7.2 7.2 0 0 1 5.495 2.1 8.177 8.177 0 0 1 1.991 5.86v10.666h-3.987V17.227a5.33 5.33 0 0 0-1.125-3.584 4.157 4.157 0 0 0-3.336-1.314 4.45 4.45 0 0 0-3.338 1.392 5.218 5.218 0 0 0-1.346 3.798v10.044h-3.946V9.3ZM124.811 27.928a10.07 10.07 0 0 1-3.946-.75 9.05 9.05 0 0 1-3.006-2.025 8.922 8.922 0 0 1-1.898-2.995 10.064 10.064 0 0 1-.664-3.653 9.61 9.61 0 0 1 .739-3.762 9.464 9.464 0 0 1 2.008-3.032 9.547 9.547 0 0 1 6.804-2.776c1.292-.01 2.574.226 3.78.694a8.943 8.943 0 0 1 3.019 1.954 9.123 9.123 0 0 1 1.995 2.979 9.689 9.689 0 0 1 .718 3.76v1.35h-15.301a5.785 5.785 0 0 0 1.843 3.494 5.675 5.675 0 0 0 3.946 1.37 5.68 5.68 0 0 0 3.188-.841 4.478 4.478 0 0 0 1.79-2.264h4.24a9.938 9.938 0 0 1-3.379 4.765 9.547 9.547 0 0 1-5.876 1.732Zm.078-15.523a5.678 5.678 0 0 0-3.508 1.113 5.904 5.904 0 0 0-2.071 2.867h11.029a5.146 5.146 0 0 0-1.937-2.955 5.892 5.892 0 0 0-3.513-1.025ZM141.755 26.612l-7.63-17.311h4.24l5.384 12.674 5.091-12.674h4.164l-11.135 26.698h-4.057l3.943-9.387ZM155.058 12.807V.902h3.981v8.399h3.908v3.503h-3.908v7.269c-.011.665.032 1.331.13 1.99a2 2 0 0 0 .553 1.15c.337.294.755.478 1.199.53.671.097 1.35.14 2.028.128v3.69h-.588a14.108 14.108 0 0 1-3.504-.367 4.762 4.762 0 0 1-2.251-1.223 4.788 4.788 0 0 1-1.199-2.3 15.255 15.255 0 0 1-.349-3.558v-7.306ZM173.397 27.928a9.53 9.53 0 0 1-6.767-2.758 9.644 9.644 0 0 1-2.045-10.48 9.238 9.238 0 0 1 2.046-3.018 9.73 9.73 0 0 1 3.043-2.005 9.52 9.52 0 0 1 3.723-.732 9.528 9.528 0 0 1 3.726.732 9.755 9.755 0 0 1 3.041 2.005 9.243 9.243 0 0 1 2.047 3.013 9.512 9.512 0 0 1 .738 3.742 9.416 9.416 0 0 1-2.785 6.74 9.537 9.537 0 0 1-3.11 2.056 9.503 9.503 0 0 1-3.657.705Zm0-15.34a5.443 5.443 0 0 0-4.039 1.716 5.928 5.928 0 0 0-1.178 1.861 6.262 6.262 0 0 0 0 4.529c.272.69.672 1.32 1.178 1.86a5.475 5.475 0 0 0 4.039 1.717 5.417 5.417 0 0 0 2.212-.456 5.684 5.684 0 0 0 1.807-1.26c.518-.539.93-1.17 1.217-1.861a6.034 6.034 0 0 0 0-4.529 6.031 6.031 0 0 0-1.217-1.86 5.745 5.745 0 0 0-1.807-1.26 5.443 5.443 0 0 0-2.212-.456ZM185.295 27.564h3.946V.902h-3.946v26.662ZM196.43 27.563h-3.983V9.3h3.983v18.262Zm-1.992-21.406a2.603 2.603 0 0 1-1.916-.726 2.565 2.565 0 0 1-.739-1.901 2.586 2.586 0 0 1 .739-1.899 2.62 2.62 0 0 1 1.916-.729 2.614 2.614 0 0 1 1.917.73 2.559 2.559 0 0 1 .739 1.898 2.572 2.572 0 0 1-.739 1.899 2.619 2.619 0 0 1-1.917.728ZM207.897 27.929a8.91 8.91 0 0 1-3.409-.677 9.428 9.428 0 0 1-2.932-1.896 9.12 9.12 0 0 1-2.071-2.974 9.723 9.723 0 0 1-.769-3.951 9.897 9.897 0 0 1 .755-3.94 9.29 9.29 0 0 1 2.03-3 8.753 8.753 0 0 1 2.947-1.899 9.509 9.509 0 0 1 3.488-.656 8.364 8.364 0 0 1 3.468.73 7.113 7.113 0 0 1 2.652 2.006v-2.37H218v18.26h-3.944v-2.517a7.49 7.49 0 0 1-2.696 2.116 8.057 8.057 0 0 1-3.463.768Zm.553-15.45a5.728 5.728 0 0 0-3.243.966 5.77 5.77 0 0 0-2.14 2.63 6.056 6.056 0 0 0-.442 2.319c-.005.8.145 1.595.442 2.338.281.71.701 1.356 1.235 1.9a5.82 5.82 0 0 0 4.148 1.717 5.68 5.68 0 0 0 2.324-.475 5.8 5.8 0 0 0 1.844-1.279 5.915 5.915 0 0 0 1.216-1.88 6.066 6.066 0 0 0 .436-2.321 5.996 5.996 0 0 0-1.657-4.16 5.837 5.837 0 0 0-1.839-1.28 5.708 5.708 0 0 0-2.324-.475Z"/><path fill="#FF4307" d="M26.61 29.32H7.17a7.112 7.112 0 0 1-5.046-2.06A7.174 7.174 0 0 1 0 22.221V7.102a7.174 7.174 0 0 1 2.123-5.04A7.113 7.113 0 0 1 7.17 0h19.44a7.113 7.113 0 0 1 5.047 2.062 7.174 7.174 0 0 1 2.123 5.04v15.12a7.174 7.174 0 0 1-2.124 5.037 7.112 7.112 0 0 1-5.046 2.06ZM8.867 6.07a2.65 2.65 0 0 0-1.916.764 2.673 2.673 0 0 0-.798 1.91V20.58c.006.712.292 1.393.797 1.893a2.67 2.67 0 0 0 1.894.774h16.09c.71.004 1.392-.274 1.897-.774.505-.5.791-1.18.797-1.893V8.742a2.716 2.716 0 0 0-.487-1.515 2.686 2.686 0 0 0-4.2-.274l-4.11 4.506a2.635 2.635 0 0 1-1.936.852 2.624 2.624 0 0 1-1.937-.852l-4.116-4.504a2.654 2.654 0 0 0-1.975-.885Z"/><path stroke="#FF4308" stroke-linejoin="round" stroke-miterlimit="10" stroke-width="2.745" d="M21.54 14.396a4.655 4.655 0 0 1-1.375 3.27 4.618 4.618 0 0 1-3.275 1.336 4.599 4.599 0 0 1-3.274-1.336 4.638 4.638 0 0 1-1.374-3.27"/></svg>